<svg width="2935" height="633" viewBox="0 0 2935 633" fill="none" xmlns="http://www.w3.org/2000/svg">
<path d="M352.702 293.078C352.702 293.078 349.796 336.596 359.669 336.596C367.791 336.596 373.603 316.885 389.848 275.117L499.433 1.33042H576.562L467.503 275.117C435.013 363.87 406.584 408.544 349.165 408.544C308.553 408.544 280.719 366.776 280.719 293.113V116.762C280.719 116.762 283.029 73.2432 273.191 73.2432C266.224 73.2432 261.008 87.1776 249.419 116.762H250.014L186.784 275.117C154.294 363.87 125.865 408.544 68.4466 408.544C27.8338 408.544 0 366.776 0 293.113V1.33042H71.9127V293.078C71.9127 293.078 69.0068 336.596 78.8799 336.596C87.0025 336.596 92.8143 316.885 109.059 275.117L165.917 132.412C198.408 45.4094 226.837 1.33042 283.66 1.33042C324.273 1.33042 352.702 42.5034 352.702 116.762V293.113V293.078Z" fill="#013FFF"/>
<path d="M1244.33 335.406V407.319H1093.5C1027.47 407.319 973.448 353.297 973.448 287.266V0.735232H1045.36V287.266C1045.36 313.839 1066.93 335.406 1093.5 335.406H1244.33Z" fill="#013FFF"/>
<path d="M1532.96 335.406V407.319H1382.13C1316.1 407.319 1262.08 353.297 1262.08 287.266V0.735232H1333.99V287.266C1333.99 313.839 1355.56 335.406 1382.13 335.406H1532.96Z" fill="#013FFF"/>
<path d="M1680.29 240.281V168.368H1794.25C1857.83 168.368 1911.92 217.244 1915.6 280.754C1919.59 350.111 1864.79 407.354 1796.31 407.354H1720.34C1605.96 406.759 1514.02 312.334 1518.04 197.077C1521.83 87.0725 1613.91 0.735232 1723.95 0.735232H1868.23V72.648H1723.56C1653.22 72.648 1593.67 127.02 1589.99 197.252C1586.04 272.981 1646.05 335.406 1721.49 335.406H1796.31C1859.54 335.406 1859.54 240.281 1796.31 240.281H1680.29Z" fill="#013FFF"/>
<path d="M2764.09 287.266C2764.09 377.174 2718.85 407.319 2691.02 407.319C2634.16 407.319 2613.3 384.702 2563.41 279.703L2505.39 157.9C2487.99 120.788 2439.26 8.26262 2442.16 119.633V407.319H2370.25V119.633C2370.25 29.7244 2414.92 0.140044 2442.76 0.140044C2500.18 0.140044 2520.48 22.197 2570.37 127.16L2630.7 253.62C2651.56 300.01 2695.08 391.074 2692.18 287.266V0.175055H2764.09V287.301V287.266Z" fill="#013FFF"/>
<path d="M2339.19 206.88C2339.19 205.76 2339.16 204.605 2339.09 203.484C2337.62 175.265 2327.96 144.911 2316.82 119.143C2305.09 92.0441 2288.32 66.9062 2265.53 47.8601C2247.78 33.0504 2227.51 21.2867 2205.8 13.3042C2183.43 5.04159 2159.62 0.875277 2135.78 0.875277C2022.03 0.875277 1930.16 94.5999 1933.21 209.016C1936.22 321.857 2032.64 409.174 2145.48 405.988C2240.39 403.292 2295.57 361.454 2323.3 324.132L2270.26 272.106C2245.61 308.483 2210.35 335.826 2135.78 335.826C2072.9 335.826 2020.77 307.502 2012.44 239.266H2107.39C2148.7 239.266 2189.98 239.266 2231.29 239.266C2251.49 239.266 2271.69 239.126 2291.86 239.546C2301.49 239.756 2313.01 240.071 2320.78 239.756C2325.12 239.581 2329.57 238.565 2333.35 236.325C2336.32 234.574 2337.55 231.493 2338.32 228.237C2339.93 221.27 2339.26 213.988 2339.19 206.915V206.88ZM2135.78 71.1425C2206.82 71.1425 2233.25 117.147 2251 166.968H2020.49C2038.27 117.147 2064.18 71.1425 2135.78 71.1425Z" fill="#013FFF"/>
<path d="M956.362 206.88C956.362 205.76 956.327 204.605 956.257 203.484C954.787 175.265 945.124 144.911 933.99 119.143C922.262 92.0441 905.491 66.9062 882.699 47.8601C864.948 33.0504 844.677 21.2867 822.97 13.3042C800.598 5.04159 776.791 0.875277 752.948 0.875277C639.197 0.875277 547.328 94.5999 550.374 209.016C553.385 321.857 649.805 409.174 762.646 405.988C857.561 403.292 912.739 361.454 940.467 324.132L887.426 272.106C862.778 308.483 827.522 335.826 752.948 335.826C690.068 335.826 637.937 307.502 629.604 239.266H724.554C765.867 239.266 807.145 239.266 848.458 239.266C868.66 239.266 888.861 239.126 909.027 239.546C918.655 239.756 930.174 240.071 937.947 239.756C942.288 239.581 946.734 238.565 950.516 236.325C953.491 234.574 954.717 231.493 955.487 228.237C957.098 221.27 956.432 213.988 956.362 206.915V206.88ZM752.948 71.1425C823.985 71.1425 850.419 117.147 868.169 166.968H637.657C655.442 117.147 681.35 71.1425 752.948 71.1425Z" fill="#013FFF"/>
<path d="M2328.87 439.319H2347.25V631.46H2328.87V439.319Z" fill="#013FFF"/>
<path d="M2488.38 547.013V631.425H2470.77V610.208C2462.47 624.177 2446.43 632.72 2423.89 632.72C2393.08 632.72 2374.17 616.65 2374.17 593.088C2374.17 572.116 2387.65 554.505 2426.72 554.505H2469.96V546.208C2469.96 522.89 2456.76 510.216 2431.38 510.216C2413.77 510.216 2397.21 516.448 2386.07 526.286L2377.78 512.562C2391.5 500.903 2411.7 494.181 2433.2 494.181C2468.42 494.181 2488.34 511.792 2488.34 547.013H2488.38ZM2470 590.532V568.265H2427.28C2400.88 568.265 2392.34 578.628 2392.34 592.597C2392.34 608.387 2405.02 618.225 2426.79 618.225C2448.57 618.225 2462.78 608.387 2470.03 590.532H2470Z" fill="#013FFF"/>
<path d="M2663.4 563.328C2663.4 604.501 2634.41 632.72 2595.55 632.72C2573.03 632.72 2554.13 622.882 2542.99 604.501V631.425H2525.38V439.284H2543.76V521.105C2555.14 503.494 2573.8 494.181 2595.55 494.181C2634.37 494.181 2663.4 522.155 2663.4 563.328ZM2645.02 563.328C2645.02 531.468 2622.99 510.251 2594.25 510.251C2565.51 510.251 2543.48 531.503 2543.48 563.328C2543.48 595.153 2565.23 616.405 2594.25 616.405C2623.27 616.405 2645.02 595.188 2645.02 563.328Z" fill="#013FFF"/>
<path d="M2669.1 615.915L2677.4 601.42C2688.29 609.963 2706.67 616.685 2725.82 616.685C2751.73 616.685 2762.34 607.897 2762.34 594.418C2762.34 558.952 2674.04 586.926 2674.04 533.044C2674.04 510.776 2693.19 494.216 2727.89 494.216C2745.5 494.216 2764.65 499.153 2776.06 506.89L2768.04 521.665C2756.14 513.367 2741.89 510.006 2727.92 510.006C2703.31 510.006 2692.46 519.599 2692.46 532.518C2692.46 569.28 2780.75 541.586 2780.75 593.893C2780.75 617.455 2760.03 632.72 2724.56 632.72C2702.05 632.72 2680.27 625.473 2669.14 615.88L2669.1 615.915Z" fill="#013FFF"/>
<path d="M2900.25 9.06787C2910.89 15.1598 2919.22 23.4924 2925.31 34.1358C2931.37 44.7792 2934.42 56.5429 2934.42 69.497C2934.42 82.4511 2931.3 94.2848 2925.1 105.068C2918.91 115.817 2910.44 124.324 2899.76 130.521C2889.08 136.718 2877.24 139.834 2864.29 139.834C2851.34 139.834 2839.57 136.718 2828.93 130.521C2818.29 124.324 2809.92 115.852 2803.76 105.173C2797.63 94.4599 2794.55 82.7311 2794.55 69.9171C2794.55 57.103 2797.63 45.3393 2803.76 34.661C2809.88 23.9826 2818.32 15.5099 2829 9.31294C2839.68 3.11599 2851.58 0 2864.64 0C2877.7 0 2889.57 3.04596 2900.18 9.10288L2900.25 9.06787ZM2915.79 69.497C2915.79 59.5888 2913.62 50.696 2909.24 42.7485C2904.9 34.836 2898.85 28.604 2891.11 24.1226C2883.37 19.6412 2874.58 17.4005 2864.68 17.4005C2854.77 17.4005 2845.91 19.7112 2838.14 24.3327C2830.33 28.9542 2824.24 35.2561 2819.83 43.2387C2815.42 51.2212 2813.21 60.114 2813.21 69.8821C2813.21 79.6502 2815.42 88.543 2819.83 96.5255C2824.24 104.508 2830.33 110.81 2838.07 115.431C2845.8 120.053 2854.52 122.364 2864.33 122.364C2871.57 122.364 2878.4 121.033 2884.74 118.407C2891.07 115.782 2896.54 112 2901.19 107.134H2877.03L2864.75 88.1229H2860.19V107.134H2831.66V32.6653H2867.13C2878.08 32.6653 2886.66 35.1861 2892.86 40.1927C2899.06 45.1993 2902.17 51.9564 2902.17 60.3941C2902.17 70.8274 2898.22 78.3548 2890.3 82.9762L2903.96 104.158C2911.87 94.3898 2915.83 82.8362 2915.83 69.497H2915.79ZM2865.31 68.5167C2867.93 68.5167 2870 67.7814 2871.43 66.346C2872.9 64.9105 2873.6 62.9149 2873.6 60.3941C2873.6 57.8733 2872.87 55.9127 2871.43 54.4422C2869.96 53.0068 2867.93 52.2715 2865.31 52.2715H2860.16V68.5167H2865.31Z" fill="#013FFF"/>
</svg>
